<svg version="1.1" id="Layer_1" xmlns="http://www.w3.org/2000/svg" xmlns:xlink="http://www.w3.org/1999/xlink" x="0px" y="0px"
	 width="100%" viewBox="0 0 548 548" enable-background="new 0 0 548 548" xml:space="preserve">
<path fill="#042C5D" opacity="1.000000" stroke="none" 
	d="
M292.000000,549.000000 
	C194.688736,549.000000 97.877472,549.000000 1.033107,549.000000 
	C1.033107,366.397034 1.033107,183.794083 1.033107,1.095559 
	C183.561279,1.095559 366.122620,1.095559 548.841980,1.095559 
	C548.841980,183.666565 548.841980,366.333252 548.841980,549.000000 
	C463.460693,549.000000 377.980347,549.000000 292.000000,549.000000 
M502.075623,288.638092 
	C502.065521,288.099091 502.055420,287.560089 502.252319,286.678833 
	C502.252319,286.678833 502.342743,286.289246 502.844513,285.861908 
	C502.911682,284.602753 502.978882,283.343567 503.253204,281.369171 
	C503.346771,280.883911 503.440308,280.398682 503.967682,279.236969 
	C503.779022,274.030121 503.590393,268.823273 503.398071,262.819519 
	C503.205353,261.234497 503.012604,259.649445 502.970551,257.237579 
	C500.324310,239.577957 491.695770,225.031158 478.690155,213.281281 
	C470.207886,205.618042 460.537292,199.393158 448.277863,196.909927 
	C447.093811,195.576553 445.909760,194.243195 444.919128,192.516953 
	C444.919128,192.516953 444.817017,192.091110 444.977509,191.422073 
	C444.863586,190.977798 444.749664,190.533508 444.894348,189.333344 
	C444.657349,188.284988 444.420349,187.236649 444.403839,185.547638 
	C444.179413,184.718369 443.954987,183.889114 443.620544,182.424164 
	C443.497406,182.012405 443.374298,181.600647 443.375092,180.621552 
	C443.040283,179.955200 442.705505,179.288849 442.259857,177.917480 
	C441.999481,177.002838 441.739105,176.088211 441.540985,174.586563 
	C441.140320,173.938278 440.739655,173.289993 440.190826,172.110397 
	C440.029877,171.780396 439.868927,171.450394 439.697876,170.519989 
	C439.252197,169.884445 438.806549,169.248886 438.129700,167.955292 
	C436.308319,165.019577 434.486938,162.083862 432.609222,158.479279 
	C429.020142,155.110336 425.431061,151.741394 421.354523,147.926697 
	C419.911133,146.945175 418.467743,145.963654 416.743011,144.377563 
	C412.099060,142.477402 407.455139,140.577255 402.210480,138.463211 
	C401.795074,138.374359 401.379669,138.285492 400.388336,137.696365 
	C391.809387,135.459656 383.225250,135.044861 374.083984,137.664474 
	C373.726837,137.746429 373.369720,137.828384 372.598663,137.696503 
	C371.929352,137.991837 371.260010,138.287155 369.986908,138.747452 
	C368.999695,139.078644 368.012451,139.409836 366.585358,139.577133 
	C365.933350,139.935181 365.281372,140.293228 363.958069,140.862473 
	C362.278046,141.763443 360.598053,142.664413 358.178925,143.503967 
	C357.445648,143.399811 356.712402,143.295670 355.768341,142.533569 
	C352.204895,139.004807 348.641449,135.476044 344.886017,131.338196 
	C343.871887,130.679260 342.857788,130.020340 341.312744,128.951599 
	C339.596558,127.923462 337.880371,126.895325 335.851929,125.299942 
	C334.505463,124.734077 333.158966,124.168213 331.203430,123.260155 
	C329.910950,122.742653 328.618500,122.225151 326.873138,121.173813 
	C321.238403,120.047150 315.603699,118.920486 309.049438,117.678802 
	C304.706757,117.733101 300.364075,117.787392 295.370117,117.569916 
	C291.447784,118.584015 287.525452,119.598106 282.992523,120.618721 
	C282.015106,120.397453 281.037689,120.176186 279.836853,119.361694 
	C278.831299,118.722153 277.825775,118.082611 276.358276,116.959908 
	C274.616211,115.606461 272.874115,114.253021 270.884552,112.357430 
	C270.229584,111.960930 269.574615,111.564438 268.591949,110.957764 
	C268.591949,110.957764 268.232147,110.809059 267.922821,110.226334 
	C266.233124,109.278992 264.543396,108.331650 262.344421,107.045860 
	C261.644440,106.628624 260.944427,106.211395 259.883301,105.237343 
	C257.859558,104.363068 255.835785,103.488785 253.230194,102.302963 
	C252.606522,102.091415 251.982849,101.879868 250.933899,101.124802 
	C247.279465,100.019554 243.625015,98.914314 239.466034,97.679543 
	C239.122406,97.633133 238.778778,97.586723 237.978622,97.084023 
	C235.978287,96.674599 233.977966,96.265175 231.440582,95.746986 
	C231.077454,95.710861 230.714325,95.674736 229.826019,95.154030 
	C228.160980,94.978905 226.495956,94.803772 224.212341,94.476921 
	C223.790649,94.428932 223.368958,94.380943 222.495956,93.914719 
	C221.331635,93.920448 220.167313,93.926186 218.076874,93.839447 
	C213.721786,93.868484 209.366714,93.897514 204.481033,93.628853 
	C203.192505,93.953690 201.903992,94.278526 200.083069,94.580482 
	C199.732117,94.629272 199.381149,94.678055 198.472946,94.485641 
	C197.185776,94.852600 195.898621,95.219566 193.955902,95.562782 
	C193.308792,95.662094 192.661697,95.761406 191.615646,95.643387 
	C191.101730,95.870949 190.587799,96.098511 189.435745,96.429131 
	C189.021027,96.545311 188.606293,96.661491 187.443420,96.629417 
	C184.517761,97.653091 181.592117,98.676758 178.011475,99.819519 
	C177.403046,100.083870 176.794632,100.348213 175.526382,100.502808 
	C174.228058,101.222183 172.929718,101.941559 170.982101,102.860451 
	C169.355103,103.651260 167.728104,104.442070 165.502869,105.247299 
	C164.856384,105.684677 164.209885,106.122055 162.966293,106.810593 
	C162.028397,107.342598 161.090500,107.874603 159.563599,108.405968 
	C158.964935,108.873589 158.366287,109.341217 157.182785,110.082947 
	C155.819794,111.110229 154.456818,112.137505 152.513596,113.299263 
	C151.986404,113.850021 151.459213,114.400780 150.353958,115.278221 
	C145.236481,120.187401 140.119019,125.096581 134.442520,130.195648 
	C134.085312,130.846237 133.728104,131.496826 132.955780,132.694321 
	C130.616821,136.104233 128.277863,139.514145 125.354408,143.226883 
	C124.972603,144.209366 124.590797,145.191833 123.900673,146.781982 
	C123.455742,147.825104 123.010803,148.868240 122.064690,150.181808 
	C121.636673,151.018265 121.208664,151.854736 120.248405,153.063690 
	C119.753052,154.420013 119.257706,155.776352 118.442810,157.783646 
	C118.178719,158.709045 117.914627,159.634430 117.209427,160.950256 
	C117.008499,161.673294 116.807564,162.396332 116.301559,163.771866 
	C116.085175,164.704208 115.868782,165.636551 115.225700,166.963516 
	C115.076485,167.683777 114.927261,168.404037 114.498421,169.932022 
	C113.747246,174.994553 112.996078,180.057068 111.912270,185.824615 
	C111.862946,189.199478 111.813614,192.574326 111.402885,196.655731 
	C111.310570,196.903656 111.218254,197.151566 110.409904,197.539719 
	C106.455780,199.283249 102.501656,201.026779 98.253105,202.781738 
	C98.253105,202.781738 98.000595,202.933578 97.283707,203.036407 
	C85.259331,209.065262 75.423782,217.524765 68.046112,229.352249 
	C68.046112,229.352249 67.835793,229.724365 67.243225,230.039612 
	C59.904823,240.445694 56.167328,252.120667 55.372940,264.730194 
	C55.057014,269.744934 55.350216,274.798004 55.502941,280.393219 
	C55.535576,280.775208 55.568211,281.157166 55.318119,282.245911 
	C55.756355,283.652466 56.194595,285.059021 56.595768,286.967194 
	C56.676456,287.291321 56.757141,287.615417 56.664970,288.445343 
	C57.055389,289.445465 57.445808,290.445557 57.829754,291.983307 
	C58.167213,292.998016 58.504673,294.012726 58.766094,295.593872 
	C59.114639,296.253143 59.463184,296.912445 59.828377,298.220245 
	C60.077202,298.814117 60.326027,299.408020 60.572292,300.692017 
	C61.676033,302.895233 62.779770,305.098450 64.016762,307.975769 
	C67.100998,312.291992 70.185226,316.608215 73.422272,321.561829 
	C75.975861,323.967865 78.529449,326.373932 81.100586,328.899841 
	C81.100586,328.899841 81.220558,328.916534 81.360931,329.526520 
	C82.579086,330.500549 83.797241,331.474579 85.374367,332.819336 
	C85.525406,332.901642 85.676437,332.983978 86.106583,333.616608 
	C87.071777,334.294159 88.036972,334.971680 89.463928,336.182831 
	C91.939537,337.474487 94.415146,338.766144 97.265656,340.613525 
	C102.503281,342.509521 107.740898,344.405548 113.645653,346.608307 
	C114.130760,346.660461 114.615868,346.712616 115.615135,347.151550 
	C117.420273,347.462372 119.225418,347.773193 121.793282,348.333374 
	C124.244774,348.453979 126.696274,348.574585 129.860626,349.035126 
	C131.847519,349.159546 133.834412,349.392517 135.821320,349.392822 
	C231.365646,349.407654 326.909973,349.407043 422.454285,349.368958 
	C424.578583,349.368103 426.702698,348.913757 429.675415,348.812744 
	C432.450623,348.550140 435.225861,348.287537 438.376709,348.189545 
	C438.870789,348.025208 439.364838,347.860870 440.601471,347.680542 
	C441.073181,347.534210 441.544861,347.387848 442.602722,347.342346 
	C443.286407,346.978943 443.970093,346.615540 445.237793,346.401642 
	C445.822205,346.278961 446.406647,346.156311 447.582520,346.194305 
	C450.920715,344.860321 454.258911,343.526337 458.242767,342.109680 
	C460.177094,341.120605 462.111420,340.131561 464.697845,339.025818 
	C465.573669,338.395905 466.449493,337.765991 467.927460,336.977051 
	C468.936615,336.274719 469.945801,335.572388 471.526917,334.709473 
	C472.005951,334.129822 472.484955,333.550140 473.381042,332.746185 
	C473.654785,332.579834 473.886261,332.367493 474.766235,332.065521 
	C476.560333,330.395660 478.354431,328.725800 480.641449,326.803741 
	C481.111359,326.244110 481.581268,325.684448 482.658600,324.881439 
	C483.794434,323.599548 484.930267,322.317657 486.484589,320.806305 
	C486.745636,320.604706 486.924377,320.346191 487.596649,319.696594 
	C488.938690,317.557434 490.280701,315.418274 492.109528,312.924744 
	C492.771759,311.687469 493.433960,310.450165 494.586853,308.862946 
	C494.805206,308.141296 495.023590,307.419678 495.575989,306.175720 
	C495.702759,305.783447 495.829498,305.391174 496.495056,304.727509 
	C496.733093,304.183136 496.971100,303.638733 497.713348,302.720978 
	C498.277893,301.150940 498.842438,299.580902 499.774628,297.287872 
	C500.245453,295.213806 500.716309,293.139740 501.493622,290.444427 
	C501.579773,289.992615 501.665924,289.540802 502.075623,288.638092 
M392.200806,411.320709 
	C402.958405,425.937286 413.666626,440.590820 424.543243,455.118256 
	C425.748901,456.728577 427.915558,457.619415 430.535431,459.483459 
	C430.535431,431.941010 430.535431,406.226929 430.535431,380.079987 
	C428.560974,380.226166 427.015045,380.340637 424.971191,380.491974 
	C424.971191,402.025635 424.971191,423.073517 424.971191,444.121399 
	C422.696350,442.876556 421.427795,441.244659 420.200958,439.582001 
	C406.363617,420.828796 392.511749,402.086121 378.726898,383.294342 
	C377.042236,380.997772 375.448853,379.140045 372.067200,380.799561 
	C372.067200,406.542175 372.067200,432.253387 372.067200,458.342041 
	C374.075989,458.208008 375.654449,458.102661 377.985474,457.947113 
	C377.985474,436.285278 377.985474,414.997559 377.985474,393.709839 
	C378.337555,393.648315 378.689636,393.586792 379.041718,393.525269 
	C383.291077,399.262909 387.540436,405.000519 392.200806,411.320709 
M328.932953,399.628662 
	C327.576324,388.291351 322.468384,381.836151 311.877563,380.657043 
	C303.213715,379.692505 294.357025,380.460663 285.129425,380.460663 
	C285.129425,406.414062 285.129425,432.144226 285.129425,457.861206 
	C289.577667,459.408203 290.876770,457.642487 290.776276,453.393738 
	C290.575378,444.898712 290.614899,436.392761 290.829315,427.898285 
	C290.864319,426.511932 292.249481,424.008423 293.100983,423.968903 
	C303.716553,423.476196 307.881531,422.767822 313.207397,433.506104 
	C316.535156,440.215729 319.718567,447.020386 322.496002,453.970551 
	C324.137817,458.078949 326.429749,459.296600 331.180328,457.520508 
	C325.188293,445.466339 319.277618,433.575806 313.296570,421.543732 
	C322.966034,418.493835 328.668091,411.546173 328.932953,399.628662 
M148.006424,420.439575 
	C139.960724,432.652039 131.915024,444.864471 123.230476,458.046631 
	C142.847046,458.046631 160.746323,458.046631 178.915161,458.046631 
	C178.915161,456.309967 178.915161,454.778168 178.915161,452.785828 
	C163.815353,452.785828 149.084335,452.785828 133.274231,452.785828 
	C149.369080,428.413300 164.926544,404.854553 181.036484,380.459167 
	C162.555893,380.459167 145.531998,380.459167 128.636520,380.459167 
	C127.165550,384.813568 129.019409,385.793182 132.683289,385.750122 
	C143.337036,385.624939 153.993317,385.693604 164.648453,385.730927 
	C166.349335,385.736877 168.049438,385.973145 170.676575,386.173645 
	C162.862244,397.980743 155.630096,408.908234 148.006424,420.439575 
M224.959122,401.373840 
	C224.959122,420.244873 224.959122,439.115906 224.959122,458.352112 
	C227.138794,458.197876 228.714111,458.086426 230.967941,457.926941 
	C230.967941,447.496216 230.967941,437.457336 230.967941,427.037720 
	C235.477371,427.037720 239.330673,427.429382 243.067032,426.935730 
	C247.455414,426.355957 252.107773,425.752258 255.999741,423.842560 
	C265.142548,419.356415 268.816376,411.184906 268.673248,401.284943 
	C268.550812,392.818298 265.263519,385.840118 257.118256,382.487610 
	C246.793228,378.237946 235.951096,380.476196 224.964355,380.214050 
	C224.964355,387.443054 224.964355,393.922363 224.959122,401.373840 
M86.628624,385.714600 
	C93.786179,385.714752 100.943916,385.742523 108.101189,385.697815 
	C110.170616,385.684906 112.732368,386.269348 112.654770,382.772736 
	C112.575142,379.185089 109.863899,380.140900 107.917358,380.117096 
	C100.594322,380.027557 93.269623,380.074402 85.945541,380.071228 
	C82.710632,380.069824 79.475731,380.070984 75.951218,380.070984 
	C75.951218,406.590515 75.951218,432.159698 75.951218,458.013489 
	C88.793427,458.013489 101.337692,458.013489 114.223557,458.013489 
	C114.144318,456.241699 114.080551,454.815796 113.993950,452.879395 
	C103.280502,452.879395 92.871185,452.879395 81.733841,452.879395 
	C81.733841,443.606873 81.876488,434.840668 81.666229,426.082886 
	C81.577515,422.387909 83.204048,421.592651 86.447548,421.672729 
	C92.935471,421.832977 99.433807,421.592804 105.920395,421.778381 
	C110.367233,421.905670 111.119576,420.039154 109.505791,416.083496 
	C101.650833,416.083496 93.836212,415.967163 86.027946,416.139465 
	C82.800995,416.210632 81.597343,415.131744 81.675819,411.856354 
	C81.851196,404.536438 81.822372,397.208130 81.698257,389.886261 
	C81.648911,386.975098 82.579033,385.440491 86.628624,385.714600 
M470.969299,458.212006 
	C471.440674,456.433167 472.314056,454.656097 472.321899,452.875214 
	C472.411682,432.392090 472.464539,411.907562 472.285889,391.425507 
	C472.249023,387.200287 473.314178,385.281311 477.868225,385.658508 
	C482.002167,386.000946 486.194794,385.563080 490.350037,385.739899 
	C494.433899,385.913666 495.892731,384.492615 494.287323,380.444519 
	C477.599701,380.444519 461.036957,380.444519 444.602051,380.444519 
	C443.152466,384.757324 444.942352,385.895905 448.636871,385.745483 
	C452.626801,385.583069 456.656769,386.019989 460.618591,385.651031 
	C465.553375,385.191467 466.804016,387.179413 466.727081,391.890564 
	C466.389923,412.530975 466.427307,433.177277 466.235199,453.820557 
	C466.208099,456.733765 466.569000,458.848083 470.969299,458.212006 
M352.731140,401.500122 
	C352.731140,394.558960 352.731140,387.617798 352.731140,380.482300 
	C350.479004,380.482300 348.942810,380.482300 347.016296,380.482300 
	C347.016296,406.513824 347.016296,432.192200 347.016296,458.277557 
	C349.046234,458.151642 350.751221,458.045837 352.725525,457.923340 
	C352.725525,439.052399 352.725525,420.776215 352.731140,401.500122 
z"/>
<path fill="#659BEC" opacity="1.000000" stroke="none" 
	d="
M474.075439,332.109100 
	C473.886261,332.367493 473.654785,332.579834 472.845337,332.817444 
	C471.872437,332.928162 471.435181,332.967621 470.645264,333.042175 
	C468.526855,334.382965 466.761169,335.688660 464.608093,337.013428 
	C462.188507,337.718628 460.090851,338.256042 458.135345,339.116455 
	C449.258118,343.022308 440.287292,346.157959 430.337341,346.149384 
	C330.367188,346.063232 230.396912,346.115326 130.426773,346.020813 
	C125.998764,346.016602 121.557640,345.066742 117.148796,344.387451 
	C113.750458,343.863892 110.393250,343.073395 106.667213,342.291473 
	C105.604584,342.086731 104.892502,341.992096 104.038071,341.579407 
	C99.965935,338.930359 95.633934,337.074219 92.196449,334.162140 
	C86.400749,329.252319 81.390083,323.422882 75.657433,318.430084 
	C65.425758,309.518921 62.484138,297.036377 58.818275,284.790039 
	C61.101185,283.356934 63.078587,282.140930 65.060112,280.986694 
	C65.064232,281.048492 64.940773,281.057922 65.028992,280.894043 
	C65.293465,280.540802 65.509438,280.426636 66.152206,280.234344 
	C67.090057,280.057465 67.640823,280.033813 68.597641,279.917664 
	C73.021378,278.864868 77.039055,277.904572 81.051392,276.998718 
	C81.046051,277.053192 80.937027,277.043549 81.060265,276.879913 
	C81.378944,276.520874 81.601936,276.364838 82.194534,276.062256 
	C86.410141,274.211823 89.457985,274.273865 93.343300,277.236115 
	C96.523422,279.660767 101.694809,280.536774 105.867798,280.272614 
	C109.453651,280.045563 111.736595,280.560638 114.205811,282.978912 
	C121.702042,290.320465 129.275528,297.592285 137.049973,304.636261 
	C140.302521,307.583252 142.188141,310.376678 142.068634,315.199280 
	C141.846832,324.149567 150.327698,331.421753 158.808243,330.514893 
	C168.209824,329.509491 174.949707,320.870789 172.763885,311.695801 
	C171.776169,307.549896 172.867493,304.768585 175.191223,301.685089 
	C188.420334,284.130676 201.827606,266.698059 214.552902,248.782639 
	C219.479324,241.846909 226.981567,244.989716 232.778519,242.119751 
	C238.263977,247.367538 247.519165,248.584427 248.849640,258.341278 
	C249.991348,266.713776 257.869202,272.294281 265.735291,271.273529 
	C274.097626,270.188416 280.831360,262.793884 279.810760,254.758804 
	C279.328491,250.961853 280.737122,248.935577 283.042694,246.616852 
	C298.897705,230.671494 314.756775,214.728638 330.439514,198.614609 
	C333.987366,194.969223 337.133057,191.693756 342.637695,194.798111 
	C343.417389,195.237808 344.645142,195.177185 345.588104,194.979279 
	C348.690918,194.328079 350.486725,195.816986 352.193054,198.203918 
	C358.681702,207.280777 365.494385,216.131683 371.777374,225.345657 
	C373.245087,227.498047 373.960785,230.878510 373.555176,233.463745 
	C372.140625,242.479279 377.056702,250.792923 385.520416,252.603149 
	C393.966553,254.409637 403.344177,249.027771 404.174500,240.336395 
	C404.789795,233.895508 407.974274,230.573090 412.582916,227.397949 
	C414.907562,225.796341 416.991760,223.850311 419.239502,222.131714 
	C428.997528,214.670746 438.775787,207.236191 448.762634,200.031754 
	C454.980927,202.839096 461.503815,204.609055 466.888641,208.123016 
	C483.443481,218.926178 494.641724,233.949921 499.901978,253.214767 
	C500.380219,254.966293 501.824280,256.454132 502.819824,258.064453 
	C503.012604,259.649445 503.205353,261.234497 503.223877,263.691956 
	C503.211060,269.680756 503.372437,274.797089 503.533844,279.913422 
	C503.440308,280.398682 503.346771,280.883911 503.029968,281.876953 
	C502.539551,282.824158 502.272339,283.263580 501.986877,283.449127 
	C501.576752,282.815460 501.184875,282.435638 500.792969,282.055817 
	C501.097473,283.065979 501.401947,284.076172 501.837280,285.401978 
	C502.093018,285.908173 502.217896,286.098724 502.342743,286.289246 
	C502.342743,286.289246 502.252319,286.678833 501.864777,286.882141 
	C501.014801,287.404175 500.552368,287.722900 499.815247,288.138092 
	C499.400421,289.171692 499.260315,290.108795 499.069458,291.418701 
	C498.058990,294.863983 497.099274,297.936523 496.104492,301.260437 
	C496.052521,301.680237 496.035614,301.848633 495.777039,302.168457 
	C495.675629,303.212891 495.815948,304.105896 495.956238,304.998901 
	C495.829498,305.391174 495.702759,305.783447 495.191040,306.427734 
	C494.517029,306.724121 494.231079,306.783844 493.637207,306.992249 
	C492.213531,309.082031 491.100983,311.038452 489.735809,313.172241 
	C488.981964,314.218353 488.480713,315.087067 487.700439,316.124756 
	C485.943237,317.856842 484.465027,319.419983 482.666260,321.081909 
	C480.591248,323.132538 478.836761,325.084320 476.785492,327.212585 
	C475.684265,328.962372 474.879852,330.535736 474.075439,332.109100 
z"/>
<path fill="#659BEC" opacity="1.000000" stroke="none" 
	d="
M122.565872,149.911362 
	C123.010803,148.868240 123.455742,147.825104 124.334366,146.477356 
	C125.116776,146.043350 125.465485,145.913986 126.158447,145.736023 
	C127.627754,144.781952 128.949982,144.037857 129.845169,142.944229 
	C134.855286,136.823456 139.222916,130.063278 144.851471,124.593170 
	C150.848602,118.764854 157.477570,113.163559 164.769043,109.181259 
	C178.508102,101.677567 193.468307,97.337730 209.222900,96.177971 
	C212.492416,95.937286 215.741379,95.417465 219.320251,95.034561 
	C220.066833,95.069511 220.492950,95.096207 221.105682,95.421555 
	C223.285767,96.449219 225.223557,97.478737 227.281464,97.859978 
	C244.770264,101.099899 260.692322,107.740501 274.224030,119.478981 
	C278.454010,123.148392 283.066559,123.582634 288.202759,122.396912 
	C292.077637,121.502373 295.990875,120.088501 299.887115,120.088142 
	C319.101562,120.086349 336.179504,125.482361 349.398987,140.437943 
	C350.771851,141.991074 352.442749,145.609787 355.979126,143.191528 
	C356.712402,143.295670 357.445648,143.399811 358.743713,143.776245 
	C360.401001,144.163300 361.753998,144.753571 362.545868,144.319687 
	C370.954773,139.712036 380.067322,139.920639 389.243774,139.885223 
	C408.867218,139.809494 421.946289,151.139420 432.981964,165.335007 
	C438.489075,172.418930 441.128662,181.114380 441.000244,190.622345 
	C428.958344,200.305756 416.979126,209.580902 405.242950,219.153992 
	C401.260010,222.402893 397.660797,224.758179 392.419708,221.910706 
	C390.970062,221.123123 388.758057,221.242081 387.023468,221.586975 
	C384.111664,222.165939 382.426910,221.095734 380.792847,218.794632 
	C374.431091,209.836136 367.979523,200.938538 361.394318,192.143295 
	C359.319824,189.372635 358.622101,186.884430 359.844604,183.434052 
	C362.188049,176.819717 359.591217,171.334991 354.683044,166.888794 
	C350.303345,162.921371 343.186676,162.178619 337.811615,165.066956 
	C332.034882,168.171112 328.904053,173.236298 329.206116,179.716995 
	C329.365936,183.146194 328.283966,185.292862 326.027252,187.553314 
	C309.790527,203.816864 293.579224,220.107208 277.527466,236.552673 
	C274.264923,239.895264 271.359314,242.123566 266.354523,240.144821 
	C264.448059,239.391052 261.418182,239.673157 259.644135,240.730789 
	C254.462280,243.820038 250.672516,241.931198 246.927887,238.376038 
	C245.971024,237.467575 244.813904,236.753128 243.692154,236.038437 
	C240.482224,233.993423 238.559509,231.725143 238.505478,227.297867 
	C238.427017,220.870163 234.889542,215.902725 228.540344,213.670303 
	C222.635513,211.594147 216.996292,212.076935 212.302673,216.675232 
	C207.633636,221.249451 205.779327,226.919342 207.967926,233.085510 
	C209.234558,236.654068 208.401184,238.948456 206.356171,241.678162 
	C193.978027,258.200897 181.655502,274.766541 169.469742,291.431427 
	C165.950363,296.244446 162.788269,301.112946 155.595749,299.163452 
	C154.860062,298.964081 153.853790,299.158264 153.157486,299.522430 
	C150.017319,301.164917 147.914886,299.708801 145.703766,297.556946 
	C137.469910,289.543823 129.015976,281.753571 120.909012,273.616272 
	C119.430626,272.132355 118.399292,269.369781 118.518700,267.274841 
	C118.980133,259.179535 114.568863,251.982941 107.238617,249.870895 
	C99.508484,247.643600 91.674995,251.205185 88.430580,259.053406 
	C86.629852,263.409332 83.860283,264.731079 79.172119,264.125488 
	C75.870338,265.137726 72.978073,266.046295 69.836060,267.183655 
	C68.718788,267.550812 67.851250,267.689178 66.773224,267.786560 
	C66.020935,267.850525 65.479126,267.955444 64.962578,268.009796 
	C64.987839,267.959229 65.089233,268.009216 64.673843,268.075073 
	C59.682774,268.737305 58.311821,267.051971 58.636570,262.244507 
	C59.320278,252.123230 61.839191,242.722977 67.361404,233.912735 
	C69.132027,231.544296 70.594154,229.300598 72.239166,226.811600 
	C73.257492,226.019684 74.092934,225.473083 75.220329,224.841248 
	C75.978607,224.142899 76.444923,223.529755 77.052444,222.683563 
	C77.486404,221.990891 77.779152,221.531265 78.391716,221.020645 
	C79.442596,220.288269 80.173653,219.606903 80.931488,218.936493 
	C80.958267,218.947433 80.925591,218.899612 81.261032,218.842926 
	C82.705284,217.503540 83.814095,216.220856 84.952332,214.959412 
	C84.981750,214.980667 84.937744,214.922867 85.271072,214.862305 
	C86.736938,213.535172 87.869469,212.268616 89.282570,210.818222 
	C92.050125,208.713562 94.537109,206.792740 97.403351,204.864044 
	C101.534485,203.239090 105.286369,201.622009 109.255859,199.839844 
	C110.057434,199.247162 110.641403,198.819580 111.578613,198.288849 
	C116.621140,195.459427 116.131912,190.793320 115.562820,186.667770 
	C114.566078,179.442017 116.565437,172.975403 118.794327,166.309814 
	C120.564758,161.015289 121.345650,155.389877 122.565872,149.911362 
z"/>
<path fill="#F3F8FB" opacity="1.000000" stroke="none" 
	d="
M79.581619,264.021851 
	C83.860283,264.731079 86.629852,263.409332 88.430580,259.053406 
	C91.674995,251.205185 99.508484,247.643600 107.238617,249.870895 
	C114.568863,251.982941 118.980133,259.179535 118.518700,267.274841 
	C118.399292,269.369781 119.430626,272.132355 120.909012,273.616272 
	C129.015976,281.753571 137.469910,289.543823 145.703766,297.556946 
	C147.914886,299.708801 150.017319,301.164917 153.157486,299.522430 
	C153.853790,299.158264 154.860062,298.964081 155.595749,299.163452 
	C162.788269,301.112946 165.950363,296.244446 169.469742,291.431427 
	C181.655502,274.766541 193.978027,258.200897 206.356171,241.678162 
	C208.401184,238.948456 209.234558,236.654068 207.967926,233.085510 
	C205.779327,226.919342 207.633636,221.249451 212.302673,216.675232 
	C216.996292,212.076935 222.635513,211.594147 228.540344,213.670303 
	C234.889542,215.902725 238.427017,220.870163 238.505478,227.297867 
	C238.559509,231.725143 240.482224,233.993423 243.692154,236.038437 
	C244.813904,236.753128 245.971024,237.467575 246.927887,238.376038 
	C250.672516,241.931198 254.462280,243.820038 259.644135,240.730789 
	C261.418182,239.673157 264.448059,239.391052 266.354523,240.144821 
	C271.359314,242.123566 274.264923,239.895264 277.527466,236.552673 
	C293.579224,220.107208 309.790527,203.816864 326.027252,187.553314 
	C328.283966,185.292862 329.365936,183.146194 329.206116,179.716995 
	C328.904053,173.236298 332.034882,168.171112 337.811615,165.066956 
	C343.186676,162.178619 350.303345,162.921371 354.683044,166.888794 
	C359.591217,171.334991 362.188049,176.819717 359.844604,183.434052 
	C358.622101,186.884430 359.319824,189.372635 361.394318,192.143295 
	C367.979523,200.938538 374.431091,209.836136 380.792847,218.794632 
	C382.426910,221.095734 384.111664,222.165939 387.023468,221.586975 
	C388.758057,221.242081 390.970062,221.123123 392.419708,221.910706 
	C397.660797,224.758179 401.260010,222.402893 405.242950,219.153992 
	C416.979126,209.580902 428.958344,200.305756 441.354736,190.610703 
	C442.789978,190.234695 443.712830,190.161957 444.635712,190.089233 
	C444.749664,190.533508 444.863586,190.977798 444.670898,191.756195 
	C444.274048,192.211334 444.183746,192.332321 444.093475,192.453308 
	C444.304199,192.605499 444.514954,192.757675 444.725708,192.909836 
	C445.909760,194.243195 447.093811,195.576553 448.481201,197.407562 
	C448.638580,198.534134 448.592621,199.163086 448.546692,199.792038 
	C438.775787,207.236191 428.997528,214.670746 419.239502,222.131714 
	C416.991760,223.850311 414.907562,225.796341 412.582916,227.397949 
	C407.974274,230.573090 404.789795,233.895508 404.174500,240.336395 
	C403.344177,249.027771 393.966553,254.409637 385.520416,252.603149 
	C377.056702,250.792923 372.140625,242.479279 373.555176,233.463745 
	C373.960785,230.878510 373.245087,227.498047 371.777374,225.345657 
	C365.494385,216.131683 358.681702,207.280777 352.193054,198.203918 
	C350.486725,195.816986 348.690918,194.328079 345.588104,194.979279 
	C344.645142,195.177185 343.417389,195.237808 342.637695,194.798111 
	C337.133057,191.693756 333.987366,194.969223 330.439514,198.614609 
	C314.756775,214.728638 298.897705,230.671494 283.042694,246.616852 
	C280.737122,248.935577 279.328491,250.961853 279.810760,254.758804 
	C280.831360,262.793884 274.097626,270.188416 265.735291,271.273529 
	C257.869202,272.294281 249.991348,266.713776 248.849640,258.341278 
	C247.519165,248.584427 238.263977,247.367538 232.778519,242.119751 
	C226.981567,244.989716 219.479324,241.846909 214.552902,248.782639 
	C201.827606,266.698059 188.420334,284.130676 175.191223,301.685089 
	C172.867493,304.768585 171.776169,307.549896 172.763885,311.695801 
	C174.949707,320.870789 168.209824,329.509491 158.808243,330.514893 
	C150.327698,331.421753 141.846832,324.149567 142.068634,315.199280 
	C142.188141,310.376678 140.302521,307.583252 137.049973,304.636261 
	C129.275528,297.592285 121.702042,290.320465 114.205811,282.978912 
	C111.736595,280.560638 109.453651,280.045563 105.867798,280.272614 
	C101.694809,280.536774 96.523422,279.660767 93.343300,277.236115 
	C89.457985,274.273865 86.410141,274.211823 81.956612,276.080414 
	C81.013535,276.412079 80.866989,276.665100 80.937027,277.043549 
	C80.937027,277.043549 81.046051,277.053192 80.632568,276.933289 
	C76.209915,277.878998 72.200752,278.944580 68.191582,280.010162 
	C67.640823,280.033813 67.090057,280.057465 65.951180,280.250549 
	C65.077339,280.536652 64.936577,280.749268 64.940773,281.057922 
	C64.940773,281.057922 65.064232,281.048492 64.646858,280.985870 
	C61.353271,281.128571 58.477058,281.333862 55.600845,281.539154 
	C55.568211,281.157166 55.535576,280.775208 55.618076,279.793488 
	C55.431911,271.638031 55.437016,271.653473 62.562370,269.299255 
	C63.449860,269.006042 64.249100,268.445740 65.089233,268.009216 
	C65.089233,268.009216 64.987839,267.959229 65.310051,268.064087 
	C66.082748,268.055115 66.533234,267.941345 66.983719,267.827576 
	C67.851250,267.689178 68.718788,267.550812 70.223221,267.177063 
	C73.767288,265.968384 76.674454,264.995117 79.581619,264.021851 
M156.096756,307.783234 
	C152.352554,308.989777 150.075104,311.376556 150.554886,315.488953 
	C151.023178,319.502930 154.344055,322.040558 158.306061,321.546112 
	C162.121292,321.070007 164.321884,318.858490 164.398468,314.929749 
	C164.484818,310.500183 162.084778,308.282837 156.096756,307.783234 
M108.573746,269.004791 
	C110.512131,265.079773 110.215714,261.450806 106.334358,259.055908 
	C103.182365,257.111053 99.774643,257.556183 97.445473,260.594330 
	C95.077423,263.683228 94.896744,267.196533 97.938614,270.007050 
	C101.287376,273.101135 104.812531,272.651917 108.573746,269.004791 
M269.674286,251.103363 
	C267.074554,248.182785 263.642761,247.663406 260.754425,249.715042 
	C258.920502,251.017715 257.084381,254.169418 257.397705,256.152466 
	C257.752502,258.397980 260.154846,261.086609 262.337433,262.028168 
	C264.008698,262.749115 267.139832,261.611786 268.877502,260.308716 
	C271.749512,258.154968 271.674469,254.907211 269.674286,251.103363 
M346.868835,172.433167 
	C341.265442,172.055435 337.416351,174.603867 338.132507,179.069687 
	C338.524323,181.512939 340.671783,184.663193 342.845428,185.603012 
	C346.197510,187.052338 350.031860,185.783798 351.416290,181.843643 
	C352.770325,177.989883 351.554657,174.648819 346.868835,172.433167 
M395.793579,235.886856 
	C394.708405,231.391022 391.708618,229.419861 387.340820,230.366852 
	C383.375183,231.226639 381.600616,234.373215 382.158051,238.235031 
	C382.683960,241.878738 385.053467,244.270538 389.011780,244.014053 
	C393.440582,243.727081 396.045471,241.421539 395.793579,235.886856 
M224.737961,234.948654 
	C228.278549,233.769440 230.815063,231.308685 229.805420,227.639877 
	C229.184525,225.383713 226.862503,222.800522 224.682068,221.938965 
	C220.510773,220.290710 216.553726,223.269058 216.113708,227.503143 
	C215.624634,232.209274 218.374863,234.856064 224.737961,234.948654 
z"/>
<path fill="#6294DF" opacity="1.000000" stroke="none" 
	d="
M391.995300,411.029419 
	C387.540436,405.000519 383.291077,399.262909 379.041718,393.525269 
	C378.689636,393.586792 378.337555,393.648315 377.985474,393.709839 
	C377.985474,414.997559 377.985474,436.285278 377.985474,457.947113 
	C375.654449,458.102661 374.075989,458.208008 372.067200,458.342041 
	C372.067200,432.253387 372.067200,406.542175 372.067200,380.799561 
	C375.448853,379.140045 377.042236,380.997772 378.726898,383.294342 
	C392.511749,402.086121 406.363617,420.828796 420.200958,439.582001 
	C421.427795,441.244659 422.696350,442.876556 424.971191,444.121399 
	C424.971191,423.073517 424.971191,402.025635 424.971191,380.491974 
	C427.015045,380.340637 428.560974,380.226166 430.535431,380.079987 
	C430.535431,406.226929 430.535431,431.941010 430.535431,459.483459 
	C427.915558,457.619415 425.748901,456.728577 424.543243,455.118256 
	C413.666626,440.590820 402.958405,425.937286 391.995300,411.029419 
z"/>
<path fill="#6194DE" opacity="1.000000" stroke="none" 
	d="
M328.937500,400.065857 
	C328.668091,411.546173 322.966034,418.493835 313.296570,421.543732 
	C319.277618,433.575806 325.188293,445.466339 331.180328,457.520508 
	C326.429749,459.296600 324.137817,458.078949 322.496002,453.970551 
	C319.718567,447.020386 316.535156,440.215729 313.207397,433.506104 
	C307.881531,422.767822 303.716553,423.476196 293.100983,423.968903 
	C292.249481,424.008423 290.864319,426.511932 290.829315,427.898285 
	C290.614899,436.392761 290.575378,444.898712 290.776276,453.393738 
	C290.876770,457.642487 289.577667,459.408203 285.129425,457.861206 
	C285.129425,432.144226 285.129425,406.414062 285.129425,380.460663 
	C294.357025,380.460663 303.213715,379.692505 311.877563,380.657043 
	C322.468384,381.836151 327.576324,388.291351 328.937500,400.065857 
M297.565369,385.715424 
	C294.934937,386.301056 290.701050,383.854431 290.727081,389.428253 
	C290.766663,397.899994 290.618469,406.375610 290.871185,414.839996 
	C290.906189,416.012543 292.725861,418.056732 293.803284,418.113861 
	C298.597290,418.367889 303.469147,418.432465 308.225250,417.850037 
	C317.532166,416.710327 323.510010,409.267853 322.925140,400.200439 
	C322.351074,391.300629 316.324829,385.958710 306.520416,385.714325 
	C303.864288,385.648132 301.204926,385.711731 297.565369,385.715424 
z"/>
<path fill="#6395DF" opacity="1.000000" stroke="none" 
	d="
M148.202179,420.137634 
	C155.630096,408.908234 162.862244,397.980743 170.676575,386.173645 
	C168.049438,385.973145 166.349335,385.736877 164.648453,385.730927 
	C153.993317,385.693604 143.337036,385.624939 132.683289,385.750122 
	C129.019409,385.793182 127.165550,384.813568 128.636520,380.459167 
	C145.531998,380.459167 162.555893,380.459167 181.036484,380.459167 
	C164.926544,404.854553 149.369080,428.413300 133.274231,452.785828 
	C149.084335,452.785828 163.815353,452.785828 178.915161,452.785828 
	C178.915161,454.778168 178.915161,456.309967 178.915161,458.046631 
	C160.746323,458.046631 142.847046,458.046631 123.230476,458.046631 
	C131.915024,444.864471 139.960724,432.652039 148.202179,420.137634 
z"/>
<path fill="#6294DF" opacity="1.000000" stroke="none" 
	d="
M224.961731,400.887756 
	C224.964355,393.922363 224.964355,387.443054 224.964355,380.214050 
	C235.951096,380.476196 246.793228,378.237946 257.118256,382.487610 
	C265.263519,385.840118 268.550812,392.818298 268.673248,401.284943 
	C268.816376,411.184906 265.142548,419.356415 255.999741,423.842560 
	C252.107773,425.752258 247.455414,426.355957 243.067032,426.935730 
	C239.330673,427.429382 235.477371,427.037720 230.967941,427.037720 
	C230.967941,437.457336 230.967941,447.496216 230.967941,457.926941 
	C228.714111,458.086426 227.138794,458.197876 224.959122,458.352112 
	C224.959122,439.115906 224.959122,420.244873 224.961731,400.887756 
M230.708176,405.494995 
	C230.710861,409.648682 230.494736,413.820953 230.844345,417.945221 
	C230.954880,419.249054 232.627289,421.522369 233.500687,421.483032 
	C239.748978,421.201447 246.178101,421.205170 252.156906,419.628571 
	C259.385834,417.722260 263.457550,409.526459 262.662811,401.182159 
	C261.823730,392.372162 257.318756,387.181488 248.851852,386.108063 
	C244.265152,385.526550 239.560654,385.942078 234.923553,385.667358 
	C231.587952,385.469788 230.579330,386.897430 230.690033,390.044220 
	C230.859299,394.856201 230.717880,399.679108 230.708176,405.494995 
z"/>
<path fill="#6194DD" opacity="1.000000" stroke="none" 
	d="
M86.144440,385.720886 
	C82.579033,385.440491 81.648911,386.975098 81.698257,389.886261 
	C81.822372,397.208130 81.851196,404.536438 81.675819,411.856354 
	C81.597343,415.131744 82.800995,416.210632 86.027946,416.139465 
	C93.836212,415.967163 101.650833,416.083496 109.505791,416.083496 
	C111.119576,420.039154 110.367233,421.905670 105.920395,421.778381 
	C99.433807,421.592804 92.935471,421.832977 86.447548,421.672729 
	C83.204048,421.592651 81.577515,422.387909 81.666229,426.082886 
	C81.876488,434.840668 81.733841,443.606873 81.733841,452.879395 
	C92.871185,452.879395 103.280502,452.879395 113.993950,452.879395 
	C114.080551,454.815796 114.144318,456.241699 114.223557,458.013489 
	C101.337692,458.013489 88.793427,458.013489 75.951218,458.013489 
	C75.951218,432.159698 75.951218,406.590515 75.951218,380.070984 
	C79.475731,380.070984 82.710632,380.069824 85.945541,380.071228 
	C93.269623,380.074402 100.594322,380.027557 107.917358,380.117096 
	C109.863899,380.140900 112.575142,379.185089 112.654770,382.772736 
	C112.732368,386.269348 110.170616,385.684906 108.101189,385.697815 
	C100.943916,385.742523 93.786179,385.714752 86.144440,385.720886 
z"/>
<path fill="#6293DD" opacity="1.000000" stroke="none" 
	d="
M470.587158,458.255768 
	C466.569000,458.848083 466.208099,456.733765 466.235199,453.820557 
	C466.427307,433.177277 466.389923,412.530975 466.727081,391.890564 
	C466.804016,387.179413 465.553375,385.191467 460.618591,385.651031 
	C456.656769,386.019989 452.626801,385.583069 448.636871,385.745483 
	C444.942352,385.895905 443.152466,384.757324 444.602051,380.444519 
	C461.036957,380.444519 477.599701,380.444519 494.287323,380.444519 
	C495.892731,384.492615 494.433899,385.913666 490.350037,385.739899 
	C486.194794,385.563080 482.002167,386.000946 477.868225,385.658508 
	C473.314178,385.281311 472.249023,387.200287 472.285889,391.425507 
	C472.464539,411.907562 472.411682,432.392090 472.321899,452.875214 
	C472.314056,454.656097 471.440674,456.433167 470.587158,458.255768 
z"/>
<path fill="#4C7DC2" opacity="1.000000" stroke="none" 
	d="
M107.017754,342.401581 
	C110.393250,343.073395 113.750458,343.863892 117.148796,344.387451 
	C121.557640,345.066742 125.998764,346.016602 130.426773,346.020813 
	C230.396912,346.115326 330.367188,346.063232 430.337341,346.149384 
	C440.287292,346.157959 449.258118,343.022308 458.135345,339.116455 
	C460.090851,338.256042 462.188507,337.718628 464.624878,337.038116 
	C465.029053,337.043762 465.062592,337.093170 464.919800,337.340668 
	C464.533234,338.106293 464.289520,338.624390 464.045776,339.142517 
	C462.111420,340.131561 460.177094,341.120605 457.508179,342.177856 
	C453.512726,343.508545 450.251892,344.771088 446.991058,346.033630 
	C446.406647,346.156311 445.822205,346.278961 444.643646,346.323486 
	C443.371857,346.577362 442.694214,346.909424 442.016571,347.241486 
	C441.544861,347.387848 441.073181,347.534210 440.042175,347.601196 
	C438.988953,347.689545 438.494995,347.857239 438.001068,348.024933 
	C435.225861,348.287537 432.450623,348.550140 428.887207,348.594147 
	C426.280518,348.247925 424.462036,348.008942 422.643494,348.008606 
	C326.941681,347.990173 231.239883,347.987366 135.538101,348.020905 
	C133.407898,348.021667 131.277878,348.460663 129.147766,348.695190 
	C126.696274,348.574585 124.244774,348.453979 121.155457,347.996826 
	C118.712074,347.361755 116.906525,347.063263 115.100975,346.764771 
	C114.615868,346.712616 114.130760,346.660461 113.123810,346.232452 
	C110.740562,344.704926 108.879158,343.553253 107.017754,342.401581 
z"/>
<path fill="#4A78B7" opacity="1.000000" stroke="none" 
	d="
M129.504196,348.865173 
	C131.277878,348.460663 133.407898,348.021667 135.538101,348.020905 
	C231.239883,347.987366 326.941681,347.990173 422.643494,348.008606 
	C424.462036,348.008942 426.280518,348.247925 428.462952,348.523254 
	C426.702698,348.913757 424.578583,349.368103 422.454285,349.368958 
	C326.909973,349.407043 231.365646,349.407654 135.821320,349.392822 
	C133.834412,349.392517 131.847519,349.159546 129.504196,348.865173 
z"/>
<path fill="#6093DE" opacity="1.000000" stroke="none" 
	d="
M352.728333,402.000061 
	C352.725525,420.776215 352.725525,439.052399 352.725525,457.923340 
	C350.751221,458.045837 349.046234,458.151642 347.016296,458.277557 
	C347.016296,432.192200 347.016296,406.513824 347.016296,380.482300 
	C348.942810,380.482300 350.479004,380.482300 352.731140,380.482300 
	C352.731140,387.617798 352.731140,394.558960 352.728333,402.000061 
z"/>
<path fill="#5184C9" opacity="1.000000" stroke="none" 
	d="
M355.873718,142.862549 
	C352.442749,145.609787 350.771851,141.991074 349.398987,140.437943 
	C336.179504,125.482361 319.101562,120.086349 299.887115,120.088142 
	C295.990875,120.088501 292.077637,121.502373 288.202759,122.396912 
	C283.066559,123.582634 278.454010,123.148392 274.224030,119.478981 
	C260.692322,107.740501 244.770264,101.099899 227.281464,97.859978 
	C225.223557,97.478737 223.285767,96.449219 221.367615,95.336792 
	C221.944382,94.746567 222.445831,94.539764 222.947266,94.332962 
	C223.368958,94.380943 223.790649,94.428932 224.770508,94.793182 
	C227.002853,95.285828 228.677017,95.462212 230.351196,95.638596 
	C230.714325,95.674736 231.077454,95.710861 231.994339,96.037376 
	C234.510452,96.731949 236.472794,97.136131 238.435150,97.540314 
	C238.778778,97.586723 239.122406,97.633133 239.986664,97.991692 
	C244.124588,99.425339 247.741882,100.546829 251.359177,101.668320 
	C251.982849,101.879868 252.606522,102.091415 253.706161,102.707863 
	C256.202911,104.006561 258.223663,104.900368 260.244446,105.794167 
	C260.944427,106.211395 261.644440,106.628624 262.747742,107.493904 
	C264.844757,108.897652 266.538452,109.853355 268.232147,110.809052 
	C268.232147,110.809059 268.591949,110.957764 268.870361,111.339935 
	C269.809875,112.114594 270.470947,112.507088 271.132050,112.899582 
	C272.874115,114.253021 274.616211,115.606461 276.708130,117.482834 
	C278.058746,118.655487 279.059509,119.305199 280.060272,119.954910 
	C281.037689,120.176186 282.015106,120.397453 283.716156,120.649178 
	C288.300323,119.733658 292.160858,118.787674 296.021393,117.841690 
	C300.364075,117.787392 304.706757,117.733101 309.821716,117.972191 
	C316.171326,119.412933 321.748657,120.560295 327.326019,121.707642 
	C328.618500,122.225151 329.910950,122.742653 331.688416,123.678329 
	C333.503693,124.686729 334.833923,125.276955 336.164185,125.867188 
	C337.880371,126.895325 339.596558,127.923462 341.681854,129.451324 
	C343.059967,130.616455 344.069000,131.281860 345.078003,131.947281 
	C348.641449,135.476044 352.204895,139.004807 355.873718,142.862549 
z"/>
<path fill="#5184C9" opacity="1.000000" stroke="none" 
	d="
M218.999817,95.026291 
	C215.741379,95.417465 212.492416,95.937286 209.222900,96.177971 
	C193.468307,97.337730 178.508102,101.677567 164.769043,109.181259 
	C157.477570,113.163559 150.848602,118.764854 144.851471,124.593170 
	C139.222916,130.063278 134.855286,136.823456 129.845169,142.944229 
	C128.949982,144.037857 127.627754,144.781952 126.182953,145.381592 
	C125.888428,144.358521 125.913666,143.641296 125.938896,142.924042 
	C128.277863,139.514145 130.616821,136.104233 133.411774,132.290771 
	C134.245697,131.260056 134.623627,130.632919 135.001556,130.005768 
	C140.119019,125.096581 145.236481,120.187401 150.937531,115.057480 
	C152.045334,114.279411 152.569580,113.722099 153.093826,113.164780 
	C154.456818,112.137505 155.819794,111.110229 157.771820,109.932610 
	C158.958115,109.323723 159.555359,108.865173 160.152618,108.406616 
	C161.090500,107.874603 162.028397,107.342598 163.581268,106.712692 
	C164.831192,106.154152 165.466141,105.693512 166.101089,105.232880 
	C167.728104,104.442070 169.355103,103.651260 171.649567,102.787025 
	C173.606750,102.013252 174.896484,101.312912 176.186203,100.612564 
	C176.794632,100.348213 177.403046,100.083870 178.737579,99.777672 
	C182.372971,98.749771 185.282272,97.763710 188.191574,96.777664 
	C188.606293,96.661491 189.021027,96.545311 189.955460,96.474762 
	C190.988312,96.300507 191.501450,96.080605 192.014587,95.860718 
	C192.661697,95.761406 193.308792,95.662094 194.673920,95.673409 
	C196.604706,95.431641 197.817444,95.079239 199.030197,94.726837 
	C199.381149,94.678055 199.732117,94.629272 200.732132,94.673073 
	C202.591339,94.485962 203.801483,94.206261 205.011627,93.926544 
	C209.366714,93.897514 213.721786,93.868484 218.537720,94.159286 
	C218.998978,94.661522 218.999405,94.843910 218.999817,95.026291 
z"/>
<path fill="#5184C9" opacity="1.000000" stroke="none" 
	d="
M444.765015,189.711288 
	C443.712830,190.161957 442.789978,190.234695 441.512573,190.319077 
	C441.128662,181.114380 438.489075,172.418930 432.981964,165.335007 
	C421.946289,151.139420 408.867218,139.809494 389.243774,139.885223 
	C380.067322,139.920639 370.954773,139.712036 362.545868,144.319687 
	C361.753998,144.753571 360.401001,144.163300 359.113281,143.806946 
	C360.598053,142.664413 362.278046,141.763443 364.630127,140.767242 
	C365.876556,140.361679 366.450897,140.051346 367.025238,139.741028 
	C368.012451,139.409836 368.999695,139.078644 370.616486,138.703003 
	C371.834900,138.409149 372.423737,138.159744 373.012573,137.910339 
	C373.369720,137.828384 373.726837,137.746429 374.848328,137.743134 
	C384.063232,137.946762 392.513733,138.071701 400.964264,138.196640 
	C401.379669,138.285492 401.795074,138.374359 402.721741,138.804230 
	C407.830109,141.090881 412.427246,143.036499 417.024353,144.982117 
	C418.467743,145.963654 419.911133,146.945175 421.707581,148.450394 
	C425.595612,152.365448 429.130585,155.756790 432.665558,159.148132 
	C434.486938,162.083862 436.308319,165.019577 438.234314,168.595535 
	C438.795288,169.863983 439.251617,170.492188 439.708008,171.120392 
	C439.868927,171.450394 440.029877,171.780396 440.237976,172.676025 
	C440.682953,173.885620 441.080811,174.529602 441.478699,175.173584 
	C441.739105,176.088211 441.999481,177.002838 442.272888,178.558105 
	C442.607635,179.862122 442.929413,180.525497 443.251190,181.188873 
	C443.374298,181.600647 443.497406,182.012405 443.545898,182.959167 
	C443.708618,184.392212 443.945984,185.290253 444.183350,186.188293 
	C444.420349,187.236649 444.657349,188.284988 444.765015,189.711288 
z"/>
<path fill="#4C7DC2" opacity="1.000000" stroke="none" 
	d="
M448.762634,200.031754 
	C448.592621,199.163086 448.638580,198.534134 448.774475,197.607513 
	C460.537292,199.393158 470.207886,205.618042 478.690155,213.281281 
	C491.695770,225.031158 500.324310,239.577957 502.895203,257.651001 
	C501.824280,256.454132 500.380219,254.966293 499.901978,253.214767 
	C494.641724,233.949921 483.443481,218.926178 466.888641,208.123016 
	C461.503815,204.609055 454.980927,202.839096 448.762634,200.031754 
z"/>
<path fill="#4C7DC2" opacity="1.000000" stroke="none" 
	d="
M58.512775,285.007172 
	C62.484138,297.036377 65.425758,309.518921 75.657433,318.430084 
	C81.390083,323.422882 86.400749,329.252319 92.196449,334.162140 
	C95.633934,337.074219 99.965935,338.930359 103.658485,341.533508 
	C101.244415,341.223114 99.067589,340.640472 96.890762,340.057831 
	C94.415146,338.766144 91.939537,337.474487 89.127968,335.628113 
	C87.803825,334.404358 86.815643,333.735321 85.827469,333.066284 
	C85.676437,332.983978 85.525406,332.901642 85.090645,332.366089 
	C83.611473,330.914093 82.416016,329.915314 81.220566,328.916534 
	C81.220558,328.916534 81.100586,328.899841 80.986816,328.529175 
	C78.338524,325.747192 75.803993,323.335815 73.269463,320.924438 
	C70.185226,316.608215 67.100998,312.291992 63.912872,307.266327 
	C62.730938,304.371887 61.652897,302.186890 60.574852,300.001892 
	C60.326027,299.408020 60.077202,298.814117 59.812637,297.604492 
	C59.478645,296.334991 59.160389,295.681213 58.842133,295.027435 
	C58.504673,294.012726 58.167213,292.998016 57.843159,291.332397 
	C57.516983,289.767487 57.177402,288.853516 56.837822,287.939545 
	C56.757141,287.615417 56.676456,287.291321 56.828438,286.495239 
	C57.544994,285.684570 58.028889,285.345886 58.512775,285.007172 
z"/>
<path fill="#4A78B7" opacity="1.000000" stroke="none" 
	d="
M64.673843,268.075073 
	C64.249100,268.445740 63.449860,269.006042 62.562370,269.299255 
	C55.437016,271.653473 55.431911,271.638031 55.549660,279.513702 
	C55.350216,274.798004 55.057014,269.744934 55.372940,264.730194 
	C56.167328,252.120667 59.904823,240.445694 67.529831,230.250504 
	C67.561928,231.653427 67.307419,232.845444 67.052917,234.037476 
	C61.839191,242.722977 59.320278,252.123230 58.636570,262.244507 
	C58.311821,267.051971 59.682774,268.737305 64.673843,268.075073 
z"/>
<path fill="#4A7CBF" opacity="1.000000" stroke="none" 
	d="
M122.315285,150.046585 
	C121.345650,155.389877 120.564758,161.015289 118.794327,166.309814 
	C116.565437,172.975403 114.566078,179.442017 115.562820,186.667770 
	C116.131912,190.793320 116.621140,195.459427 111.552444,198.039658 
	C111.173035,197.893600 111.125946,197.399460 111.125946,197.399460 
	C111.218254,197.151566 111.310570,196.903656 111.807388,196.052460 
	C112.222885,192.005997 112.233894,188.562805 112.244904,185.119598 
	C112.996078,180.057068 113.747246,174.994553 114.831741,169.328491 
	C115.327507,168.006271 115.489952,167.287582 115.652390,166.568893 
	C115.868782,165.636551 116.085175,164.704208 116.667908,163.256027 
	C117.239685,162.013397 117.445107,161.286621 117.650528,160.559830 
	C117.914627,159.634430 118.178719,158.709045 118.829002,157.264526 
	C119.737015,155.393997 120.258835,154.042603 120.780655,152.691193 
	C121.208664,151.854736 121.636673,151.018265 122.315285,150.046585 
z"/>
<path fill="#4A78B7" opacity="1.000000" stroke="none" 
	d="
M78.071907,221.071655 
	C77.779152,221.531265 77.486404,221.990891 76.782341,222.799896 
	C75.890144,223.741669 75.409256,224.334061 74.928375,224.926468 
	C74.092934,225.473083 73.257492,226.019684 71.965668,226.948364 
	C70.462906,227.911453 69.416527,228.492477 68.370148,229.073502 
	C75.423782,217.524765 85.259331,209.065262 97.528671,203.233185 
	C97.523796,203.910614 97.273941,204.391266 97.024094,204.871918 
	C94.537109,206.792740 92.050125,208.713562 88.953865,210.887848 
	C87.208969,212.401840 86.073357,213.662354 84.937744,214.922867 
	C84.937744,214.922867 84.981750,214.980667 84.634674,215.049500 
	C83.166931,216.378754 82.046265,217.639191 80.925591,218.899612 
	C80.925591,218.899612 80.958267,218.947433 80.636261,219.018280 
	C79.566811,219.749954 78.819366,220.410812 78.071907,221.071655 
z"/>
<path fill="#3665A5" opacity="1.000000" stroke="none" 
	d="
M400.676300,137.946503 
	C392.513733,138.071701 384.063232,137.946762 375.122620,137.722198 
	C383.225250,135.044861 391.809387,135.459656 400.676300,137.946503 
z"/>
<path fill="#4A78B7" opacity="1.000000" stroke="none" 
	d="
M97.078209,340.335693 
	C99.067589,340.640472 101.244415,341.223114 103.800827,341.851624 
	C104.892502,341.992096 105.604584,342.086731 106.667213,342.291473 
	C108.879158,343.553253 110.740562,344.704926 112.790245,346.079071 
	C107.740898,344.405548 102.503281,342.509521 97.078209,340.335693 
z"/>
<path fill="#4A78B7" opacity="1.000000" stroke="none" 
	d="
M503.750763,279.575195 
	C503.372437,274.797089 503.211060,269.680756 503.225708,264.090424 
	C503.590393,268.823273 503.779022,274.030121 503.750763,279.575195 
z"/>
<path fill="#3665A5" opacity="1.000000" stroke="none" 
	d="
M432.637390,158.813705 
	C429.130585,155.756790 425.595612,152.365448 421.951294,148.673279 
	C425.431061,151.741394 429.020142,155.110336 432.637390,158.813705 
z"/>
<path fill="#3665A5" opacity="1.000000" stroke="none" 
	d="
M327.099579,121.440735 
	C321.748657,120.560295 316.171326,119.412933 310.281464,118.029701 
	C315.603699,118.920486 321.238403,120.047150 327.099579,121.440735 
z"/>
<path fill="#3665A5" opacity="1.000000" stroke="none" 
	d="
M416.883667,144.679840 
	C412.427246,143.036499 407.830109,141.090881 403.022095,138.911179 
	C407.455139,140.577255 412.099060,142.477402 416.883667,144.679840 
z"/>
<path fill="#4A78B7" opacity="1.000000" stroke="none" 
	d="
M58.818279,284.790039 
	C58.028889,285.345886 57.544994,285.684570 56.846970,286.244415 
	C56.194595,285.059021 55.756355,283.652466 55.459480,281.892517 
	C58.477058,281.333862 61.353271,281.128571 64.642738,280.924072 
	C63.078587,282.140930 61.101185,283.356934 58.818279,284.790039 
z"/>
<path fill="#4A78B7" opacity="1.000000" stroke="none" 
	d="
M112.078583,185.472107 
	C112.233894,188.562805 112.222885,192.005997 111.988083,195.699188 
	C111.813614,192.574326 111.862946,189.199478 112.078583,185.472107 
z"/>
<path fill="#4A78B7" opacity="1.000000" stroke="none" 
	d="
M110.767929,197.469589 
	C111.125946,197.399460 111.173035,197.893600 111.199203,198.142792 
	C110.641403,198.819580 110.057434,199.247162 108.869675,199.869583 
	C105.026428,200.966385 101.786980,201.868347 98.547531,202.770309 
	C102.501656,201.026779 106.455780,199.283249 110.767929,197.469589 
z"/>
<path fill="#4A78B7" opacity="1.000000" stroke="none" 
	d="
M73.345871,321.243134 
	C75.803993,323.335815 78.338524,325.747192 80.978050,328.469238 
	C78.529449,326.373932 75.975861,323.967865 73.345871,321.243134 
z"/>
<path fill="#3665A5" opacity="1.000000" stroke="none" 
	d="
M295.695740,117.705803 
	C292.160858,118.787674 288.300323,119.733658 284.021454,120.645920 
	C287.525452,119.598106 291.447784,118.584015 295.695740,117.705803 
z"/>
<path fill="#4A7CBF" opacity="1.000000" stroke="none" 
	d="
M98.400314,202.776016 
	C101.786980,201.868347 105.026428,200.966385 108.652069,200.034668 
	C105.286369,201.622009 101.534485,203.239090 97.403351,204.864044 
	C97.273941,204.391266 97.523796,203.910614 97.887115,203.181763 
	C98.000595,202.933578 98.253105,202.781738 98.400314,202.776016 
z"/>
<path fill="#4A78B7" opacity="1.000000" stroke="none" 
	d="
M474.420837,332.087311 
	C474.879852,330.535736 475.684265,328.962372 477.166992,327.208740 
	C478.613037,327.037628 479.380768,327.046783 480.148529,327.055939 
	C478.354431,328.725800 476.560333,330.395660 474.420837,332.087311 
z"/>
<path fill="#4C7DC2" opacity="1.000000" stroke="none" 
	d="
M496.139526,301.009033 
	C497.099274,297.936523 498.058990,294.863983 499.412567,291.414032 
	C500.266663,291.046326 500.726929,291.056000 501.187164,291.065674 
	C500.716309,293.139740 500.245453,295.213806 499.364258,297.807190 
	C498.015747,299.220703 497.077637,300.114868 496.139526,301.009033 
z"/>
<path fill="#4C7DC2" opacity="1.000000" stroke="none" 
	d="
M480.394989,326.929840 
	C479.380768,327.046783 478.613037,327.037628 477.463806,327.032288 
	C478.836761,325.084320 480.591248,323.132538 482.690430,321.109558 
	C483.035156,321.038361 483.083527,321.093170 482.991577,321.425964 
	C482.616821,322.880768 482.333984,324.002777 482.051147,325.124786 
	C481.581268,325.684448 481.111359,326.244110 480.394989,326.929840 
z"/>
<path fill="#3665A5" opacity="1.000000" stroke="none" 
	d="
M251.146545,101.396561 
	C247.741882,100.546829 244.124588,99.425339 240.238937,98.056458 
	C243.625015,98.914314 247.279465,100.019554 251.146545,101.396561 
z"/>
<path fill="#4A78B7" opacity="1.000000" stroke="none" 
	d="
M447.286804,346.113953 
	C450.251892,344.771088 453.512726,343.508545 457.185333,342.219177 
	C454.258911,343.526337 450.920715,344.860321 447.286804,346.113953 
z"/>
<path fill="#4C7DC2" opacity="1.000000" stroke="none" 
	d="
M465.012268,337.019043 
	C466.761169,335.688660 468.526855,334.382965 470.640015,333.352722 
	C470.976654,334.042114 470.965820,334.456116 470.954987,334.870087 
	C469.945801,335.572388 468.936615,336.274719 467.248566,337.033081 
	C466.067322,337.090454 465.564941,337.091797 465.062592,337.093140 
	C465.062592,337.093170 465.029053,337.043762 465.012268,337.019043 
z"/>
<path fill="#4C7DC2" opacity="1.000000" stroke="none" 
	d="
M489.988434,312.994873 
	C491.100983,311.038452 492.213531,309.082031 493.661102,307.386108 
	C494.029510,308.168671 494.062836,308.690765 494.096161,309.212860 
	C493.433960,310.450165 492.771759,311.687469 491.457458,313.026581 
	C490.533081,313.083893 490.260742,313.039398 489.988434,312.994873 
z"/>
<path fill="#578BD4" opacity="1.000000" stroke="none" 
	d="
M68.208130,229.212875 
	C69.416527,228.492477 70.462906,227.911453 71.782776,227.193665 
	C70.594154,229.300598 69.132027,231.544296 67.361404,233.912735 
	C67.307419,232.845444 67.561928,231.653427 67.826111,230.092880 
	C67.835793,229.724365 68.046112,229.352249 68.208130,229.212875 
z"/>
<path fill="#4A78B7" opacity="1.000000" stroke="none" 
	d="
M489.735809,313.172241 
	C490.260742,313.039398 490.533081,313.083893 491.214081,313.203766 
	C490.280701,315.418274 488.938690,317.557434 487.366699,319.520020 
	C487.417633,318.214264 487.698578,317.085052 487.979492,315.955811 
	C488.480713,315.087067 488.981964,314.218353 489.735809,313.172241 
z"/>
<path fill="#3665A5" opacity="1.000000" stroke="none" 
	d="
M187.817505,96.703537 
	C185.282272,97.763710 182.372971,98.749771 179.065063,99.718124 
	C181.592117,98.676758 184.517761,97.653091 187.817505,96.703537 
z"/>
<path fill="#4A78B7" opacity="1.000000" stroke="none" 
	d="
M60.573570,300.346954 
	C61.652897,302.186890 62.730938,304.371887 63.846245,306.929260 
	C62.779770,305.098450 61.676033,302.895233 60.573570,300.346954 
z"/>
<path fill="#4C7DC2" opacity="1.000000" stroke="none" 
	d="
M487.700470,316.124756 
	C487.698578,317.085052 487.417633,318.214264 487.078735,319.687134 
	C486.924377,320.346191 486.745636,320.604706 485.901611,320.914368 
	C484.573578,321.046051 483.828552,321.069611 483.083527,321.093170 
	C483.083527,321.093170 483.035156,321.038361 483.010986,321.010742 
	C484.465027,319.419983 485.943237,317.856842 487.700470,316.124756 
z"/>
<path fill="#3665A5" opacity="1.000000" stroke="none" 
	d="
M260.063873,105.515762 
	C258.223663,104.900368 256.202911,104.006561 253.997070,102.863632 
	C255.835785,103.488785 257.859558,104.363068 260.063873,105.515762 
z"/>
<path fill="#4A78B7" opacity="1.000000" stroke="none" 
	d="
M115.358055,346.958191 
	C116.906525,347.063263 118.712074,347.361755 120.774094,347.872131 
	C119.225418,347.773193 117.420273,347.462372 115.358055,346.958191 
z"/>
<path fill="#3665A5" opacity="1.000000" stroke="none" 
	d="
M268.077484,110.517693 
	C266.538452,109.853355 264.844757,108.897652 263.002380,107.663124 
	C264.543396,108.331650 266.233124,109.278992 268.077484,110.517693 
z"/>
<path fill="#4A78B7" opacity="1.000000" stroke="none" 
	d="
M496.104492,301.260437 
	C497.077637,300.114868 498.015747,299.220703 499.180420,298.168701 
	C498.842438,299.580902 498.277893,301.150940 497.247375,302.745361 
	C496.527161,302.518860 496.272949,302.267914 496.018738,302.016998 
	C496.035614,301.848633 496.052521,301.680237 496.104492,301.260437 
z"/>
<path fill="#3665A5" opacity="1.000000" stroke="none" 
	d="
M238.206879,97.312164 
	C236.472794,97.136131 234.510452,96.731949 232.262863,96.091751 
	C233.977966,96.265175 235.978287,96.674599 238.206879,97.312164 
z"/>
<path fill="#4A78B7" opacity="1.000000" stroke="none" 
	d="
M482.991577,321.425964 
	C483.828552,321.069611 484.573578,321.046051 485.692383,321.029114 
	C484.930267,322.317657 483.794434,323.599548 482.354858,325.003113 
	C482.333984,324.002777 482.616821,322.880768 482.991577,321.425964 
z"/>
<path fill="#3665A5" opacity="1.000000" stroke="none" 
	d="
M230.088608,95.396317 
	C228.677017,95.462212 227.002853,95.285828 225.079803,94.869041 
	C226.495956,94.803772 228.160980,94.978905 230.088608,95.396317 
z"/>
<path fill="#4A78B7" opacity="1.000000" stroke="none" 
	d="
M81.290749,329.221527 
	C82.416016,329.915314 83.611473,330.914093 84.911156,332.180725 
	C83.797241,331.474579 82.579086,330.500549 81.290749,329.221527 
z"/>
<path fill="#3665A5" opacity="1.000000" stroke="none" 
	d="
M204.746338,93.777702 
	C203.801483,94.206261 202.591339,94.485962 200.998322,94.684517 
	C201.903992,94.278526 203.192505,93.953690 204.746338,93.777702 
z"/>
<path fill="#3665A5" opacity="1.000000" stroke="none" 
	d="
M336.008057,125.583557 
	C334.833923,125.276955 333.503693,124.686729 331.992981,123.849426 
	C333.158966,124.168213 334.505463,124.734077 336.008057,125.583557 
z"/>
<path fill="#3665A5" opacity="1.000000" stroke="none" 
	d="
M120.514526,152.877441 
	C120.258835,154.042603 119.737015,155.393997 118.988777,156.939026 
	C119.257706,155.776352 119.753052,154.420013 120.514526,152.877441 
z"/>
<path fill="#5B8FD8" opacity="1.000000" stroke="none" 
	d="
M501.340393,290.755066 
	C500.726929,291.056000 500.266663,291.046326 499.463318,291.041260 
	C499.260315,290.108795 499.400421,289.171692 500.069275,288.345001 
	C500.982697,288.666626 501.367371,288.877808 501.752075,289.088989 
	C501.665924,289.540802 501.579773,289.992615 501.340393,290.755066 
z"/>
<path fill="#3665A5" opacity="1.000000" stroke="none" 
	d="
M175.856293,100.557686 
	C174.896484,101.312912 173.606750,102.013252 171.974213,102.687263 
	C172.929718,101.941559 174.228058,101.222183 175.856293,100.557686 
z"/>
<path fill="#3665A5" opacity="1.000000" stroke="none" 
	d="
M219.320251,95.034561 
	C218.999405,94.843910 218.998978,94.661522 219.000778,94.205528 
	C220.167313,93.926186 221.331635,93.920448 222.721619,94.123840 
	C222.445831,94.539764 221.944382,94.746567 221.181000,95.038132 
	C220.492950,95.096207 220.066833,95.069511 219.320251,95.034561 
z"/>
<path fill="#3665A5" opacity="1.000000" stroke="none" 
	d="
M198.751572,94.606239 
	C197.817444,95.079239 196.604706,95.431641 195.001709,95.685280 
	C195.898621,95.219566 197.185776,94.852600 198.751572,94.606239 
z"/>
<path fill="#3665A5" opacity="1.000000" stroke="none" 
	d="
M279.948547,119.658302 
	C279.059509,119.305199 278.058746,118.655487 276.939087,117.724419 
	C277.825775,118.082611 278.831299,118.722153 279.948547,119.658302 
z"/>
<path fill="#4C7DC2" opacity="1.000000" stroke="none" 
	d="
M495.777039,302.168457 
	C496.272949,302.267914 496.527161,302.518860 496.995239,302.932068 
	C496.971100,303.638733 496.733093,304.183136 496.225647,304.863220 
	C495.815948,304.105896 495.675629,303.212891 495.777039,302.168457 
z"/>
<path fill="#4A78B7" opacity="1.000000" stroke="none" 
	d="
M85.967026,333.341431 
	C86.815643,333.735321 87.803825,334.404358 88.897079,335.361298 
	C88.036972,334.971680 87.071777,334.294159 85.967026,333.341431 
z"/>
<path fill="#3665A5" opacity="1.000000" stroke="none" 
	d="
M344.981995,131.642731 
	C344.069000,131.281860 343.059967,130.616455 341.947327,129.656235 
	C342.857788,130.020340 343.871887,130.679260 344.981995,131.642731 
z"/>
<path fill="#4A78B7" opacity="1.000000" stroke="none" 
	d="
M502.593628,286.075562 
	C502.217896,286.098724 502.093018,285.908173 501.929565,285.059631 
	C501.929016,284.168701 501.967041,283.935852 502.005127,283.702972 
	C502.272339,283.263580 502.539551,282.824158 502.926422,282.234558 
	C502.978882,283.343567 502.911682,284.602753 502.593628,286.075562 
z"/>
<path fill="#3665A5" opacity="1.000000" stroke="none" 
	d="
M125.646652,143.075470 
	C125.913666,143.641296 125.888428,144.358521 125.838692,145.430191 
	C125.465485,145.913986 125.116776,146.043350 124.488525,146.173523 
	C124.590797,145.191833 124.972603,144.209366 125.646652,143.075470 
z"/>
<path fill="#3665A5" opacity="1.000000" stroke="none" 
	d="
M444.293579,185.867966 
	C443.945984,185.290253 443.708618,184.392212 443.600891,183.277008 
	C443.954987,183.889114 444.179413,184.718369 444.293579,185.867966 
z"/>
<path fill="#4A78B7" opacity="1.000000" stroke="none" 
	d="
M464.919800,337.340637 
	C465.564941,337.091797 466.067322,337.090454 466.947479,337.112610 
	C466.449493,337.765991 465.573669,338.395905 464.371826,339.084167 
	C464.289520,338.624390 464.533234,338.106293 464.919800,337.340637 
z"/>
<path fill="#4A78B7" opacity="1.000000" stroke="none" 
	d="
M56.751396,288.192444 
	C57.177402,288.853516 57.516983,289.767487 57.846397,291.063568 
	C57.445808,290.445557 57.055389,289.445465 56.751396,288.192444 
z"/>
<path fill="#3665A5" opacity="1.000000" stroke="none" 
	d="
M159.858109,108.406296 
	C159.555359,108.865173 158.958115,109.323723 158.064240,109.795563 
	C158.366287,109.341217 158.964935,108.873589 159.858109,108.406296 
z"/>
<path fill="#3665A5" opacity="1.000000" stroke="none" 
	d="
M191.815125,95.752045 
	C191.501450,96.080605 190.988312,96.300507 190.274536,96.423233 
	C190.587799,96.098511 191.101730,95.870949 191.815125,95.752045 
z"/>
<path fill="#3665A5" opacity="1.000000" stroke="none" 
	d="
M372.805603,137.803421 
	C372.423737,138.159744 371.834900,138.409149 370.918396,138.620529 
	C371.260010,138.287155 371.929352,137.991837 372.805603,137.803421 
z"/>
<path fill="#4A78B7" opacity="1.000000" stroke="none" 
	d="
M442.309631,347.291931 
	C442.694214,346.909424 443.371857,346.577362 444.351624,346.248718 
	C443.970093,346.615540 443.286407,346.978943 442.309631,347.291931 
z"/>
<path fill="#4A78B7" opacity="1.000000" stroke="none" 
	d="
M438.188904,348.107239 
	C438.494995,347.857239 438.988953,347.689545 439.670898,347.609192 
	C439.364838,347.860870 438.870789,348.025208 438.188904,348.107239 
z"/>
<path fill="#3665A5" opacity="1.000000" stroke="none" 
	d="
M271.008301,112.628502 
	C270.470947,112.507088 269.809875,112.114594 269.034210,111.445023 
	C269.574615,111.564438 270.229584,111.960930 271.008301,112.628502 
z"/>
<path fill="#3665A5" opacity="1.000000" stroke="none" 
	d="
M165.801971,105.240089 
	C165.466141,105.693512 164.831192,106.154152 163.879822,106.587112 
	C164.209885,106.122055 164.856384,105.684677 165.801971,105.240089 
z"/>
<path fill="#3665A5" opacity="1.000000" stroke="none" 
	d="
M115.439049,166.766205 
	C115.489952,167.287582 115.327507,168.006271 114.971550,168.924622 
	C114.927261,168.404037 115.076485,167.683777 115.439049,166.766205 
z"/>
<path fill="#3665A5" opacity="1.000000" stroke="none" 
	d="
M443.313141,180.905212 
	C442.929413,180.525497 442.607635,179.862122 442.328308,178.910614 
	C442.705505,179.288849 443.040283,179.955200 443.313141,180.905212 
z"/>
<path fill="#3665A5" opacity="1.000000" stroke="none" 
	d="
M441.509827,174.880066 
	C441.080811,174.529602 440.682953,173.885620 440.312042,172.941681 
	C440.739655,173.289993 441.140320,173.938278 441.509827,174.880066 
z"/>
<path fill="#3665A5" opacity="1.000000" stroke="none" 
	d="
M439.702942,170.820190 
	C439.251617,170.492188 438.795288,169.863983 438.349915,168.924561 
	C438.806549,169.248886 439.252197,169.884445 439.702942,170.820190 
z"/>
<path fill="#3665A5" opacity="1.000000" stroke="none" 
	d="
M152.803711,113.232025 
	C152.569580,113.722099 152.045334,114.279411 151.226562,114.894135 
	C151.459213,114.400780 151.986404,113.850021 152.803711,113.232025 
z"/>
<path fill="#3665A5" opacity="1.000000" stroke="none" 
	d="
M117.429977,160.755035 
	C117.445107,161.286621 117.239685,162.013397 116.820450,162.929779 
	C116.807564,162.396332 117.008499,161.673294 117.429977,160.755035 
z"/>
<path fill="#4C7DC2" opacity="1.000000" stroke="none" 
	d="
M501.913849,288.863525 
	C501.367371,288.877808 500.982697,288.666626 500.343994,288.248535 
	C500.552368,287.722900 501.014801,287.404175 501.761261,287.053284 
	C502.055420,287.560089 502.065521,288.099091 501.913849,288.863525 
z"/>
<path fill="#4A78B7" opacity="1.000000" stroke="none" 
	d="
M58.804115,295.310669 
	C59.160389,295.681213 59.478645,296.334991 59.804314,297.280243 
	C59.463184,296.912445 59.114639,296.253143 58.804115,295.310669 
z"/>
<path fill="#3665A5" opacity="1.000000" stroke="none" 
	d="
M366.805298,139.659088 
	C366.450897,140.051346 365.876556,140.361679 364.965820,140.661636 
	C365.281372,140.293228 365.933350,139.935181 366.805298,139.659088 
z"/>
<path fill="#4A78B7" opacity="1.000000" stroke="none" 
	d="
M494.341492,309.037903 
	C494.062836,308.690765 494.029510,308.168671 493.972229,307.252716 
	C494.231079,306.783844 494.517029,306.724121 495.024048,306.688873 
	C495.023590,307.419678 494.805206,308.141296 494.341492,309.037903 
z"/>
<path fill="#3665A5" opacity="1.000000" stroke="none" 
	d="
M134.722046,130.100708 
	C134.623627,130.632919 134.245697,131.260056 133.619324,132.017303 
	C133.728104,131.496826 134.085312,130.846237 134.722046,130.100708 
z"/>
<path fill="#4A78B7" opacity="1.000000" stroke="none" 
	d="
M471.240967,334.789795 
	C470.965820,334.456116 470.976654,334.042114 470.992737,333.317627 
	C471.435181,332.967621 471.872437,332.928162 472.636810,332.929565 
	C472.484955,333.550140 472.005951,334.129822 471.240967,334.789795 
z"/>
<path fill="#3665A5" opacity="1.000000" stroke="none" 
	d="
M444.822418,192.713409 
	C444.514954,192.757675 444.304199,192.605499 444.093475,192.453308 
	C444.183746,192.332321 444.274048,192.211334 444.590668,192.090729 
	C444.817017,192.091110 444.919128,192.516953 444.822418,192.713409 
z"/>
<path fill="#4A78B7" opacity="1.000000" stroke="none" 
	d="
M68.597641,279.917664 
	C72.200752,278.944580 76.209915,277.878998 80.637909,276.878845 
	C77.039055,277.904572 73.021378,278.864868 68.597641,279.917664 
z"/>
<path fill="#5B8FD8" opacity="1.000000" stroke="none" 
	d="
M501.986877,283.449127 
	C501.967041,283.935852 501.929016,284.168701 501.798706,284.743958 
	C501.401947,284.076172 501.097473,283.065979 500.792969,282.055817 
	C501.184875,282.435638 501.576752,282.815460 501.986877,283.449127 
z"/>
<path fill="#4A78B7" opacity="1.000000" stroke="none" 
	d="
M65.028992,280.894043 
	C64.936577,280.749268 65.077339,280.536652 65.564087,280.403809 
	C65.509438,280.426636 65.293465,280.540802 65.028992,280.894043 
z"/>
<path fill="#4A78B7" opacity="1.000000" stroke="none" 
	d="
M81.060265,276.879913 
	C80.866989,276.665100 81.013535,276.412079 81.614578,276.266357 
	C81.601936,276.364838 81.378944,276.520874 81.060265,276.879913 
z"/>
<path fill="#4A78B7" opacity="1.000000" stroke="none" 
	d="
M79.172119,264.125488 
	C76.674454,264.995117 73.767288,265.968384 70.472961,266.948273 
	C72.978073,266.046295 75.870338,265.137726 79.172119,264.125488 
z"/>
<path fill="#578BD4" opacity="1.000000" stroke="none" 
	d="
M85.271072,214.862305 
	C86.073357,213.662354 87.208969,212.401840 88.673294,211.071686 
	C87.869469,212.268616 86.736938,213.535172 85.271072,214.862305 
z"/>
<path fill="#578BD4" opacity="1.000000" stroke="none" 
	d="
M81.261032,218.842926 
	C82.046265,217.639191 83.166931,216.378754 84.605255,215.028244 
	C83.814095,216.220856 82.705284,217.503540 81.261032,218.842926 
z"/>
<path fill="#578BD4" opacity="1.000000" stroke="none" 
	d="
M78.391724,221.020660 
	C78.819366,220.410812 79.566811,219.749954 80.609482,219.007324 
	C80.173653,219.606903 79.442596,220.288269 78.391724,221.020660 
z"/>
<path fill="#578BD4" opacity="1.000000" stroke="none" 
	d="
M75.220322,224.841248 
	C75.409256,224.334061 75.890144,223.741669 76.641129,223.032959 
	C76.444923,223.529755 75.978607,224.142899 75.220322,224.841248 
z"/>
<path fill="#4A78B7" opacity="1.000000" stroke="none" 
	d="
M66.773232,267.786591 
	C66.533234,267.941345 66.082748,268.055115 65.284790,268.114624 
	C65.479126,267.955444 66.020935,267.850525 66.773232,267.786591 
z"/>
<path fill="#555A5D" opacity="1.000000" stroke="none" 
	d="
M156.456848,307.743835 
	C162.084778,308.282837 164.484818,310.500183 164.398468,314.929749 
	C164.321884,318.858490 162.121292,321.070007 158.306061,321.546112 
	C154.344055,322.040558 151.023178,319.502930 150.554886,315.488953 
	C150.075104,311.376556 152.352554,308.989777 156.456848,307.743835 
z"/>
<path fill="#575D61" opacity="1.000000" stroke="none" 
	d="
M108.320755,269.292786 
	C104.812531,272.651917 101.287376,273.101135 97.938614,270.007050 
	C94.896744,267.196533 95.077423,263.683228 97.445473,260.594330 
	C99.774643,257.556183 103.182365,257.111053 106.334358,259.055908 
	C110.215714,261.450806 110.512131,265.079773 108.320755,269.292786 
z"/>
<path fill="#555B5D" opacity="1.000000" stroke="none" 
	d="
M269.865692,251.437500 
	C271.674469,254.907211 271.749512,258.154968 268.877502,260.308716 
	C267.139832,261.611786 264.008698,262.749115 262.337433,262.028168 
	C260.154846,261.086609 257.752502,258.397980 257.397705,256.152466 
	C257.084381,254.169418 258.920502,251.017715 260.754425,249.715042 
	C263.642761,247.663406 267.074554,248.182785 269.865692,251.437500 
z"/>
<path fill="#575D60" opacity="1.000000" stroke="none" 
	d="
M347.219360,172.600769 
	C351.554657,174.648819 352.770325,177.989883 351.416290,181.843643 
	C350.031860,185.783798 346.197510,187.052338 342.845428,185.603012 
	C340.671783,184.663193 338.524323,181.512939 338.132507,179.069687 
	C337.416351,174.603867 341.265442,172.055435 347.219360,172.600769 
z"/>
<path fill="#575C60" opacity="1.000000" stroke="none" 
	d="
M395.832275,236.281479 
	C396.045471,241.421539 393.440582,243.727081 389.011780,244.014053 
	C385.053467,244.270538 382.683960,241.878738 382.158051,238.235031 
	C381.600616,234.373215 383.375183,231.226639 387.340820,230.366852 
	C391.708618,229.419861 394.708405,231.391022 395.832275,236.281479 
z"/>
<path fill="#575B5E" opacity="1.000000" stroke="none" 
	d="
M224.389801,235.040741 
	C218.374863,234.856064 215.624634,232.209274 216.113708,227.503143 
	C216.553726,223.269058 220.510773,220.290710 224.682068,221.938965 
	C226.862503,222.800522 229.184525,225.383713 229.805420,227.639877 
	C230.815063,231.308685 228.278549,233.769440 224.389801,235.040741 
z"/>
<path fill="#042D5F" opacity="1.000000" stroke="none" 
	d="
M298.056213,385.715607 
	C301.204926,385.711731 303.864288,385.648132 306.520416,385.714325 
	C316.324829,385.958710 322.351074,391.300629 322.925140,400.200439 
	C323.510010,409.267853 317.532166,416.710327 308.225250,417.850037 
	C303.469147,418.432465 298.597290,418.367889 293.803284,418.113861 
	C292.725861,418.056732 290.906189,416.012543 290.871185,414.839996 
	C290.618469,406.375610 290.766663,397.899994 290.727081,389.428253 
	C290.701050,383.854431 294.934937,386.301056 298.056213,385.715607 
z"/>
<path fill="#042D5F" opacity="1.000000" stroke="none" 
	d="
M230.708267,404.996185 
	C230.717880,399.679108 230.859299,394.856201 230.690033,390.044220 
	C230.579330,386.897430 231.587952,385.469788 234.923553,385.667358 
	C239.560654,385.942078 244.265152,385.526550 248.851852,386.108063 
	C257.318756,387.181488 261.823730,392.372162 262.662811,401.182159 
	C263.457550,409.526459 259.385834,417.722260 252.156906,419.628571 
	C246.178101,421.205170 239.748978,421.201447 233.500687,421.483032 
	C232.627289,421.522369 230.954880,419.249054 230.844345,417.945221 
	C230.494736,413.820953 230.710861,409.648682 230.708267,404.996185 
z"/>
</svg>